<svg xmlns="http://www.w3.org/2000/svg" xmlns:svg="http://www.w3.org/2000/svg" id="svg95" width="815.474" height="391.183" font-family="arial" font-size="14" version="1.1"><defs id="defs57"><marker id="triangle" markerHeight="10" markerUnits="strokeWidth" markerWidth="10" orient="auto" refX="15" refY="10" viewBox="0 0 50 20"><path id="path54" d="M 0,0 30,10 0,20 Z"/></marker></defs><style id="style59">line,path{stroke:#000;stroke-width:2;stroke-opacity:1;fill-opacity:1;stroke-linecap:round;stroke-linejoin:miter}</style><rect style="fill:#fff;stroke-width:1.50047;stroke-linecap:round;stroke-linejoin:round;stroke-miterlimit:10;stroke-dasharray:3.00094,5.00157" id="rect190" width="815.474" height="391.183" x="0" y="0"/><path id="path61" fill="none" d="M 5.2262774,9.2262774 V 33.226277 m 0,-23.9999996 H 193.22628 m -184.0000026,0 H 193.22628 m 4,0 V 33.226277 m 0,-23.9999996 h -4 m 84,0 V 33.226277 m 0,-23.9999996 h 204 m -200,0 h 200 m 4,0 V 33.226277 m 0,-23.9999996 h -4 m 100,0 V 33.226277 m 0,-23.9999996 h 220 m -216,0 h 216 m 4,0 V 33.226277 m 0,-23.9999996 h -4 M 5.2262774,17.226277 v 16 m 192.0000026,-16 v 16 m 80,-16 v 16 m 208,-16 v 16 m 96,-16 v 16 m 224,-16 v 16 m -800.0000026,0 V 161.22628 m 0,-120.000003 H 193.22628 m -184.0000026,0 H 193.22628 m 4,-8 v 32 m 0,-24 h -4 m 84,-8 V 161.22628 m 0,-120.000003 h 204 m -200,0 h 200 m 4,-8 V 161.22628 m 0,-120.000003 h -4 m 100,-8 v 32 m 0,-24 h 220 m -216,0 h 216 m 4,-8 v 64 m 0,-56 h -4 m -796.0000026,8 V 161.22628 M 197.22628,49.226277 v 16 m 80,-16 V 161.22628 m 208,-112.000003 V 161.22628 m 96,-112.000003 v 16 m 224,-16 v 48 m -608,-32 v 96.000003 m 308,-88.000003 h 72 m 4,-8 v 32 m 0,-24 h -4 m -380,8 v 80.000003 m 384,-80.000003 v 16 64.000003 m 0,-56 h 116 m -112,0 h 112 m 4,0 v 56 m -4,-56 h 104 m -96,0 h 96 m 4,-8.000003 v 64.000003 m 0,-56 h -4 m -220,8 v 48 m 120,-48 v 48 m 104,-48 v 48 m -800.0000026,8 v -8 m 0,8 H 193.22628 m -184.0000026,0 H 193.22628 m 4,0 v -8 m 0,8 h -4 m 84,0 v -8 m 0,8 h 204 m -200,0 h 200 m 4,0 v -8 m 0,8 h -4 m 100,0 v -8 m 0,8 h 116 m -112,0 h 112 m 4,0 v -8 m -4,8 h 104 m -96,0 h 96 m 4,0 v -8 m 0,8 h -4 m -52,40 v 96 m -744.0000026,-72 v 24 m 0,-24 H 193.22628 m -184.0000026,0 H 193.22628 m 4,0 v 24 m 0,-24 h -4 m -188.0000026,8 v 16 m 192.0000026,-16 v 16 m -192.0000026,0 v 112 m 0,-104 H 193.22628 m -184.0000026,0 H 193.22628 m 4,-8 v 48 m 0,-40 h -4 m -188.0000026,8 v 96 m 192.0000026,-96 v 32 64 m 0,-56 h 548 m -544,0 h 544 m 4,0 v -8 m 0,8 h -4 m -548,8 v 48 m -192.0000026,8 v -8 m 0,8 H 193.22628 m -184.0000026,0 H 193.22628 m 4,0 v -8 m 0,8 h -4"/><path id="path63" fill="none" stroke-dasharray="3 3"/><line id="line65" x1="197.226" x2="261.226" y1="73.226" y2="73.226" marker-end="url(#triangle)"/><line id="line67" x1="201.226" x2="261.226" y1="73.226" y2="73.226" marker-end="url(#triangle)"/><line id="line69" x1="505.226" x2="501.226" y1="73.226" y2="73.226" marker-end="url(#triangle)"/><line id="line71" x1="749.226" x2="749.226" y1="209.226" y2="193.226" marker-end="url(#triangle)"/><text id="text73" x="72.073" y="29.839">.NET 6</text><text id="text75" x="331.226" y="29.226">.NET Standard</text><text id="text77" x="672.015" y="28.613">.NET 6</text><text id="text79" x="643.226" y="77.226">Back End</text><text id="text81" x="43.226" y="93.226">Front End</text><text id="text83" x="331.226" y="93.226">Conference DTO</text><text id="text85" x="611.226" y="141.226">EF Models</text><text id="text87" x="730.482" y="133.869"><tspan id="tspan359" x="730.482" y="133.869">Minimal</tspan><tspan id="tspan361" x="730.482" y="151.369">APIs</tspan></text><text id="text91" x="371.226" y="301.226">HTTP calls</text><text id="text93" x="43.226" y="317.226">SPA Front End</text></svg>